<mxfile host="app.diagrams.net" modified="2023-06-24T13:29:05.691Z" agent="Mozilla/5.0 (Windows NT 10.0; Win64; x64) AppleWebKit/537.36 (KHTML, like Gecko) Chrome/114.0.0.0 Safari/537.36" etag="Aiq-oXBaBZQ1ixAJflY7" version="21.3.8" type="device">
  <diagram name="Pagina-1" id="PnZe6oL30_MqTEasBFew">
    <mxGraphModel dx="1050" dy="515" grid="1" gridSize="10" guides="1" tooltips="1" connect="1" arrows="1" fold="1" page="1" pageScale="1" pageWidth="827" pageHeight="1169" math="0" shadow="0">
      <root>
        <mxCell id="0" />
        <mxCell id="1" parent="0" />
        <mxCell id="v1BH1OIG5YsnhIcYCXTT-17" value="" style="rounded=0;whiteSpace=wrap;html=1;dashed=1;fillColor=default;" parent="1" vertex="1">
          <mxGeometry x="10" y="240" width="560" height="580" as="geometry" />
        </mxCell>
        <mxCell id="v1BH1OIG5YsnhIcYCXTT-3" value="Look at audiophile equipment, &lt;br&gt;and add them to want and or haslist,&lt;br&gt;download and upload documentation" style="edgeStyle=orthogonalEdgeStyle;rounded=0;orthogonalLoop=1;jettySize=auto;html=1;entryX=1;entryY=0.5;entryDx=0;entryDy=0;" parent="1" source="v1BH1OIG5YsnhIcYCXTT-1" target="v1BH1OIG5YsnhIcYCXTT-2" edge="1">
          <mxGeometry x="0.2" relative="1" as="geometry">
            <mxPoint as="offset" />
            <Array as="points">
              <mxPoint x="455" y="305" />
            </Array>
          </mxGeometry>
        </mxCell>
        <mxCell id="v1BH1OIG5YsnhIcYCXTT-1" value="User of SoundSensei&lt;br&gt;[Person]&lt;br&gt;(A user looking for information &lt;br&gt;about audiophile equipment)" style="shape=umlActor;verticalLabelPosition=bottom;verticalAlign=top;html=1;outlineConnect=0;" parent="1" vertex="1">
          <mxGeometry x="440" y="30" width="30" height="60" as="geometry" />
        </mxCell>
        <mxCell id="v1BH1OIG5YsnhIcYCXTT-10" style="edgeStyle=orthogonalEdgeStyle;rounded=0;orthogonalLoop=1;jettySize=auto;html=1;entryX=0.5;entryY=0;entryDx=0;entryDy=0;startArrow=classic;startFill=1;" parent="1" source="v1BH1OIG5YsnhIcYCXTT-2" target="v1BH1OIG5YsnhIcYCXTT-4" edge="1">
          <mxGeometry relative="1" as="geometry" />
        </mxCell>
        <mxCell id="v1BH1OIG5YsnhIcYCXTT-2" value="SoundSensei Frontend App&lt;br&gt;[Container: React.js and Tailwind CSS]&lt;br&gt;&lt;br&gt;The app the user interacts with" style="rounded=1;whiteSpace=wrap;html=1;" parent="1" vertex="1">
          <mxGeometry x="105" y="260" width="160" height="90" as="geometry" />
        </mxCell>
        <mxCell id="v1BH1OIG5YsnhIcYCXTT-8" style="edgeStyle=orthogonalEdgeStyle;rounded=0;orthogonalLoop=1;jettySize=auto;html=1;entryX=0.5;entryY=0;entryDx=0;entryDy=0;startArrow=classic;startFill=1;" parent="1" source="v1BH1OIG5YsnhIcYCXTT-4" target="v1BH1OIG5YsnhIcYCXTT-6" edge="1">
          <mxGeometry relative="1" as="geometry" />
        </mxCell>
        <mxCell id="v1BH1OIG5YsnhIcYCXTT-9" style="edgeStyle=orthogonalEdgeStyle;rounded=0;orthogonalLoop=1;jettySize=auto;html=1;entryX=0;entryY=0.5;entryDx=0;entryDy=0;startArrow=classic;startFill=1;" parent="1" source="v1BH1OIG5YsnhIcYCXTT-4" target="v1BH1OIG5YsnhIcYCXTT-5" edge="1">
          <mxGeometry relative="1" as="geometry" />
        </mxCell>
        <mxCell id="v1BH1OIG5YsnhIcYCXTT-4" value="SoundSensei API&lt;br&gt;[Container: ASP.net en ETF]" style="rounded=1;whiteSpace=wrap;html=1;" parent="1" vertex="1">
          <mxGeometry x="105" y="470" width="160" height="70" as="geometry" />
        </mxCell>
        <mxCell id="v1BH1OIG5YsnhIcYCXTT-5" value="Documentation server&lt;br&gt;[Container: Azure Blob Storage]&lt;br&gt;&lt;br&gt;Server that stores documentation files of a certain product" style="rounded=1;whiteSpace=wrap;html=1;" parent="1" vertex="1">
          <mxGeometry x="420" y="450" width="130" height="110" as="geometry" />
        </mxCell>
        <mxCell id="v1BH1OIG5YsnhIcYCXTT-6" value="Database&lt;br&gt;[Container: MySQL]&lt;br&gt;&lt;br&gt;Stores user information, products and brands" style="rounded=1;whiteSpace=wrap;html=1;" parent="1" vertex="1">
          <mxGeometry x="90" y="690" width="190" height="70" as="geometry" />
        </mxCell>
        <mxCell id="v1BH1OIG5YsnhIcYCXTT-11" value="Sends request to the API" style="text;html=1;strokeColor=none;fillColor=none;align=center;verticalAlign=middle;whiteSpace=wrap;rounded=0;" parent="1" vertex="1">
          <mxGeometry x="105" y="360" width="165" height="30" as="geometry" />
        </mxCell>
        <mxCell id="v1BH1OIG5YsnhIcYCXTT-13" value="Returns the requested data in JSON format" style="text;html=1;strokeColor=none;fillColor=none;align=center;verticalAlign=middle;whiteSpace=wrap;rounded=0;" parent="1" vertex="1">
          <mxGeometry x="105" y="420" width="165" height="30" as="geometry" />
        </mxCell>
        <mxCell id="v1BH1OIG5YsnhIcYCXTT-14" value="Stores and returns documentation about a product" style="text;html=1;strokeColor=none;fillColor=none;align=center;verticalAlign=middle;whiteSpace=wrap;rounded=0;" parent="1" vertex="1">
          <mxGeometry x="310" y="470" width="60" height="30" as="geometry" />
        </mxCell>
        <mxCell id="v1BH1OIG5YsnhIcYCXTT-16" value="Stores and returns data about users, products and brands" style="text;html=1;strokeColor=none;fillColor=none;align=center;verticalAlign=middle;whiteSpace=wrap;rounded=0;" parent="1" vertex="1">
          <mxGeometry x="117.5" y="590" width="135" height="40" as="geometry" />
        </mxCell>
        <mxCell id="v1BH1OIG5YsnhIcYCXTT-18" value="SoundSensei Audiophile App&lt;br&gt;[Software system]" style="text;html=1;strokeColor=none;fillColor=none;align=center;verticalAlign=middle;whiteSpace=wrap;rounded=0;" parent="1" vertex="1">
          <mxGeometry x="10" y="760" width="140" height="60" as="geometry" />
        </mxCell>
        <mxCell id="IO6kSrxISo9alkQi0ccX-5" value="Add, delete or update information about &lt;br&gt;products, brands or documentation." style="edgeStyle=orthogonalEdgeStyle;rounded=0;orthogonalLoop=1;jettySize=auto;html=1;entryX=0.5;entryY=0;entryDx=0;entryDy=0;" edge="1" parent="1" source="IO6kSrxISo9alkQi0ccX-3" target="v1BH1OIG5YsnhIcYCXTT-2">
          <mxGeometry x="0.2941" relative="1" as="geometry">
            <mxPoint as="offset" />
          </mxGeometry>
        </mxCell>
        <mxCell id="IO6kSrxISo9alkQi0ccX-3" value="Admin of SoundSensei&lt;br&gt;[Person]&lt;br&gt;(A person managing and mainting &lt;br&gt;information)" style="shape=umlActor;verticalLabelPosition=bottom;verticalAlign=top;html=1;outlineConnect=0;" vertex="1" parent="1">
          <mxGeometry x="170" y="30" width="30" height="60" as="geometry" />
        </mxCell>
      </root>
    </mxGraphModel>
  </diagram>
</mxfile>
